# xmcd
#
# Track frame offsets:
#       150
#       12008
#       26893
#       36772
#       49196
#       62100
#       78491
#       91716
#       102606
#       116260
#       131264
#       143269
#
# Disc length: 2121 seconds
#
# Revision: 1
# Processed by: cddbd v1.5.2PL0 Copyright (c) Steve Scherf et al.
# Submitted via: FreeDbEdit v0.1
#
DISCID=8f08470c
DTITLE=Tommy Roe - It's Now Winter's Day
DYEAR=1900
DGENRE=
TTITLE0=Leave Her
TTITLE1=Moontalk
TTITLE2=Aggrivation
TTITLE3=Golden Girl
TTITLE4=Misty Eyes
TTITLE5=Have Pity on Me
TTITLE6=Sing Along With Me
TTITLE7=Long Live Love
TTITLE8=Nightime
TTITLE9=Cry on Crying Eyes
TTITLE10=Sweet Sounds
TTITLE11=It's Now Winter's Day
EXTD=
EXTT0=
EXTT1=
EXTT2=
EXTT3=
EXTT4=
EXTT5=
EXTT6=
EXTT7=
EXTT8=
EXTT9=
EXTT10=
EXTT11=
PLAYORDER=
